<svg xmlns="http://www.w3.org/2000/svg" version="1.1" xmlns:xlink="http://www.w3.org/1999/xlink" xmlns:svgjs="http://svgjs.dev/svgjs" width="1500" height="292" viewBox="0 0 1500 292"><g transform="matrix(1,0,0,1,-0.5034239980369648,0.4613600000000133)"><svg viewBox="0 0 359 70" data-background-color="#000000" preserveAspectRatio="xMidYMid meet" height="292" width="1500" xmlns="http://www.w3.org/2000/svg" xmlns:xlink="http://www.w3.org/1999/xlink"><g id="tight-bounds" transform="matrix(1,0,0,1,0.12048614353017228,-0.11060000000000514)"><svg viewBox="0 0 358.75902771293966 70.2212" height="70.2212" width="358.75902771293966"><g><svg viewBox="0 0 358.75902771293966 70.2212" height="70.2212" width="358.75902771293966"><g><svg viewBox="0 0 358.75902771293966 70.2212" height="70.2212" width="358.75902771293966"><g id="textblocktransform"><svg viewBox="0 0 358.75902771293966 70.2212" height="70.2212" width="358.75902771293966" id="textblock"><g><svg viewBox="0 0 358.75902771293966 70.2212" height="70.2212" width="358.75902771293966"><g><svg><g></g><g></g></svg></g><g><svg><g></g><g><svg></svg></g></svg></g><g id="text-0"><svg viewBox="0 0 358.75902771293966 70.2212" height="70.2212" width="358.75902771293966"><g><svg xmlns="http://www.w3.org/2000/svg" xmlns:xlink="http://www.w3.org/1999/xlink" version="1.1" x="0" y="0" viewBox="0 5.828 100 88.511" enable-background="new 0 0 100 100" xml:space="preserve" height="70.2212" width="79.33612771293963" class="icon-dxe-0" data-fill-palette-color="accent" id="dxe-0"><g fill="#dedede" data-fill-palette-color="accent"><path fill="#dedede" d="M100 57.212L79.434 35.75 58.864 57.212H69.725C67.05 66.703 58.338 73.665 47.995 73.665A22.5 22.5 0 0 1 32.123 67.141L20.569 79.266 7.013 64.968C12.798 82.047 28.961 94.339 47.994 94.339 69.805 94.339 87.839 78.197 90.818 57.212z" data-fill-palette-color="accent"></path><path fill="#dedede" d="M20.569 66.258L41.137 44.796H27.989C29.992 34.376 39.155 26.503 50.158 26.503 57.355 26.503 63.762 29.874 67.896 35.119L79.431 23.013 91.216 35.445C85.507 18.238 69.283 5.828 50.158 5.828 27.715 5.828 9.268 22.92 7.116 44.796H0z" data-fill-palette-color="accent"></path></g></svg></g><g transform="matrix(1,0,0,1,95.91492771293963,0)"><svg width="262.8441" viewBox="2 -32.5 162.44 43.4" height="70.2212" data-palette-color="#89939e"><path d="M10.5 0.45L10.5 0.45Q7.78 0.45 6.04-0.06 4.3-0.58 3.34-1.24 2.38-1.9 2-2.35L2-2.35 3.85-7.1Q4.95-6.2 6.66-5.33 8.38-4.45 10.65-4.45L10.65-4.45Q12.43-4.45 13.14-5.18 13.85-5.9 13.85-6.75L13.85-6.75Q13.85-7.93 12.23-8.88 10.6-9.83 8.45-10.75L8.45-10.75Q7.18-11.3 5.75-12.15 4.33-13 3.31-14.4 2.3-15.8 2.3-18L2.3-18Q2.3-21.38 4.76-23.39 7.23-25.4 11.75-25.4L11.75-25.4Q14.65-25.4 16.66-24.54 18.68-23.68 19.35-23L19.35-23 17.65-18.5Q16.68-19.25 15.18-19.93 13.68-20.6 11.95-20.6L11.95-20.6Q10.05-20.6 9.3-20.1 8.55-19.6 8.55-18.5L8.55-18.5Q8.55-17.28 9.89-16.49 11.23-15.7 13.1-14.95L13.1-14.95Q16.23-13.73 18.14-11.94 20.05-10.15 20.05-7.4L20.05-7.4Q20.05-5.35 19.1-3.56 18.15-1.78 16.05-0.66 13.95 0.45 10.5 0.45ZM33 9.45L26.85 9.45 30.9-1.7 21.55-24.9 28.5-24.9 32.2-13.8 33.8-8.05 35.4-13.8 39.15-24.9 45.7-24.9 33 9.45ZM55.6 0L49.2 0 49.2-24.9 55-24.9 55.12-21.63Q56.1-23.13 57.85-24.31 59.6-25.5 62.45-25.5L62.45-25.5Q66.25-25.5 68.09-23.1 69.95-20.7 69.95-16.45L69.95-16.45 69.95 0 63.55 0 63.55-15.9Q63.55-17.98 62.67-19.26 61.8-20.55 60-20.55L60-20.55Q58.25-20.55 56.92-19.26 55.6-17.98 55.6-15.9L55.6-15.9 55.6 0ZM86.94 0.6L86.94 0.6Q82.97 0.6 80.47-1.19 77.97-2.98 76.78-5.93 75.59-8.88 75.59-12.35L75.59-12.35Q75.59-15.8 76.92-18.8 78.24-21.8 80.84-23.65 83.44-25.5 87.29-25.5L87.29-25.5Q89.44-25.5 91.19-25.05 92.94-24.6 94.59-23.25L94.59-23.25 92.54-17.95Q91.79-19.07 90.36-19.69 88.92-20.3 87.64-20.3L87.64-20.3Q82.19-20.3 82.19-12.4L82.19-12.4Q82.19-8.25 83.56-6.38 84.92-4.5 87.64-4.5L87.64-4.5Q89.44-4.5 90.82-5.19 92.19-5.88 92.89-6.65L92.89-6.65 94.79-2.2Q94.09-1.45 92.04-0.43 89.99 0.6 86.94 0.6ZM106.49 0.45L106.49 0.45Q103.77 0.45 102.03-0.06 100.29-0.58 99.33-1.24 98.37-1.9 97.99-2.35L97.99-2.35 99.84-7.1Q100.94-6.2 102.65-5.33 104.37-4.45 106.64-4.45L106.64-4.45Q108.42-4.45 109.13-5.18 109.84-5.9 109.84-6.75L109.84-6.75Q109.84-7.93 108.22-8.88 106.59-9.83 104.44-10.75L104.44-10.75Q103.17-11.3 101.74-12.15 100.32-13 99.3-14.4 98.29-15.8 98.29-18L98.29-18Q98.29-21.38 100.75-23.39 103.22-25.4 107.74-25.4L107.74-25.4Q110.64-25.4 112.65-24.54 114.67-23.68 115.34-23L115.34-23 113.64-18.5Q112.67-19.25 111.17-19.93 109.67-20.6 107.94-20.6L107.94-20.6Q106.04-20.6 105.29-20.1 104.54-19.6 104.54-18.5L104.54-18.5Q104.54-17.28 105.88-16.49 107.22-15.7 109.09-14.95L109.09-14.95Q112.22-13.73 114.13-11.94 116.04-10.15 116.04-7.4L116.04-7.4Q116.04-5.35 115.09-3.56 114.14-1.78 112.04-0.66 109.94 0.45 106.49 0.45ZM127.69 10.9L121.64 10.9 121.64-24.9 127.59-24.9 127.59-24.1 127.09-20.6Q127.39-22.03 128.45-23.15 129.51-24.28 131.05-24.91 132.59-25.55 134.29-25.55L134.29-25.55Q139.24-25.55 141.51-22.09 143.79-18.63 143.79-12.8L143.79-12.8Q143.79-6.28 141.03-2.79 138.26 0.7 133.79 0.7L133.79 0.7Q131.01 0.7 129.35-1.03 127.69-2.75 127.09-4.95L127.09-4.95 127.69-0.25 127.69 10.9ZM132.34-4.25L132.34-4.25Q133.54-4.25 134.66-5.06 135.79-5.88 136.51-7.7 137.24-9.53 137.24-12.55L137.24-12.55Q137.24-16.75 135.8-18.6 134.36-20.45 132.44-20.45L132.44-20.45Q130.11-20.45 128.9-18.06 127.69-15.68 127.69-12.15L127.69-12.15Q127.69-8.63 128.93-6.44 130.16-4.25 132.34-4.25ZM157.84 0.75L157.84 0.75Q153.61 0.75 152.12-1.45 150.63-3.65 150.63-8.1L150.63-8.1 150.63-19.65 147.38-19.65 147.38-24.9 150.88-24.9 151.24-30.15 156.69-32.5 156.69-24.9 162.84-24.9 162.84-19.65 156.69-19.65 156.69-8.25Q156.69-6.08 157.3-5.24 157.91-4.4 158.99-4.4L158.99-4.4Q160.09-4.4 161.31-4.98 162.53-5.55 163.24-6.15L163.24-6.15 164.44-1.1Q163.66-0.55 162.42-0.14 161.19 0.28 159.92 0.51 158.66 0.75 157.84 0.75Z" opacity="1" transform="matrix(1,0,0,1,0,0)" fill="#89939e" class="wordmark-text-0" data-fill-palette-color="primary"></path></svg></g></svg></g></svg></g></svg></g></svg></g></svg></g><defs></defs></svg><rect width="358.75902771293966" height="70.2212" fill="none" stroke="none" visibility="hidden"></rect></g></svg></g></svg>