<svg xmlns="http://www.w3.org/2000/svg" version="1.1" xmlns:xlink="http://www.w3.org/1999/xlink" xmlns:svgjs="http://svgjs.dev/svgjs" width="128" height="128" viewBox="0 0 128 128"><g transform="matrix(0.8046875,0,0,0.8046875,12.760752631578946,17.869042667243562)"><svg viewBox="0 0 95 85" data-background-color="#000000" preserveAspectRatio="xMidYMid meet" height="114" width="128" xmlns="http://www.w3.org/2000/svg" xmlns:xlink="http://www.w3.org/1999/xlink"><g id="tight-bounds" transform="matrix(1,0,0,1,-0.24049999999999727,0.24440604500000518)"><svg viewBox="0 0 95.481 84.51118790999999" height="84.51118790999999" width="95.481"><g><svg viewBox="0 0 95.481 84.51118790999999" height="84.51118790999999" width="95.481"><g><svg viewBox="0 0 95.481 84.51118790999999" height="84.51118790999999" width="95.481"><g id="textblocktransform"><svg viewBox="0 0 95.481 84.51118790999999" height="84.51118790999999" width="95.481" id="textblock"><g><svg viewBox="0 0 95.481 84.51118790999999" height="84.51118790999999" width="95.481"><g><svg viewBox="0 0 95.481 84.51118790999999" height="84.51118790999999" width="95.481"><g><svg xmlns="http://www.w3.org/2000/svg" xmlns:xlink="http://www.w3.org/1999/xlink" version="1.1" x="0" y="0" viewBox="0 5.828 100 88.511" enable-background="new 0 0 100 100" xml:space="preserve" height="84.51118790999999" width="95.481" class="icon-icon-0" data-fill-palette-color="accent" id="icon-0"><g fill="#5d5fef" data-fill-palette-color="accent"><path fill="#5d5fef" d="M100 57.212L79.434 35.75 58.864 57.212H69.725C67.05 66.703 58.338 73.665 47.995 73.665A22.5 22.5 0 0 1 32.123 67.141L20.569 79.266 7.013 64.968C12.798 82.047 28.961 94.339 47.994 94.339 69.805 94.339 87.839 78.197 90.818 57.212z" data-fill-palette-color="accent"></path><path fill="#5d5fef" d="M20.569 66.258L41.137 44.796H27.989C29.992 34.376 39.155 26.503 50.158 26.503 57.355 26.503 63.762 29.874 67.896 35.119L79.431 23.013 91.216 35.445C85.507 18.238 69.283 5.828 50.158 5.828 27.715 5.828 9.268 22.92 7.116 44.796H0z" data-fill-palette-color="accent"></path></g></svg></g></svg></g></svg></g></svg></g></svg></g></svg></g><defs></defs></svg><rect width="95.481" height="84.51118790999999" fill="none" stroke="none" visibility="hidden"></rect></g></svg></g></svg>